<svg width="385" height="90" viewBox="0 0 385 90" fill="none" xmlns="http://www.w3.org/2000/svg">
<path fill-rule="evenodd" clip-rule="evenodd" d="M0 9.6764L16.0417 21.1512C32.0833 32.626 64.1667 55.5756 96.25 51.7507C128.333 47.9257 160.417 17.3263 192.5 5.85147C224.583 -5.62333 256.667 2.02653 288.75 9.6764C320.833 17.3263 352.917 24.9761 368.958 28.8011L385 32.626V90H368.958C352.917 90 320.833 90 288.75 90C256.667 90 224.583 90 192.5 90C160.417 90 128.333 90 96.25 90C64.1667 90 32.0833 90 16.0417 90H0V9.6764Z" fill="#F36652"/>
</svg>
