<svg width="311" height="311" viewBox="0 0 311 311" fill="none" xmlns="http://www.w3.org/2000/svg">
<path d="M0.605225 171.519C4.18218 205.667 19.0563 238.857 45.2273 265.029C71.3984 291.199 104.588 306.074 138.738 309.651L0.605225 171.519Z" fill="#EEEEEE"/>
<path d="M0 146.518L163.739 310.255C177.634 309.477 191.442 306.841 204.764 302.346L7.90912 105.492C3.41429 118.813 0.777975 132.623 0 146.518Z" fill="#EEEEEE"/>
<path d="M14.9595 88.1473L222.107 295.296C232.854 290.147 243.132 283.69 252.7 275.924L34.3311 57.5562C26.566 67.124 20.1088 77.4007 14.9595 88.1473Z" fill="#EEEEEE"/>
<path d="M45.937 44.7667C106.621 -15.1564 204.392 -14.9213 264.784 45.4717C325.176 105.865 325.413 203.635 265.49 264.318L45.937 44.7667Z" fill="#EEEEEE"/>
</svg>
